REM DIRINDEX 1\3,1\2\4,1\2\5,1\2\6
REM DIRNAME folder01,folder02,folder03,folder04,folder05,folder06
TITLE ""
FILE "153.mp3" MP3
  TRACK 01 AUDIO
    TITLE "4:cjc137_6794"
    INDEX 01 00:00:00
  TRACK 02 AUDIO
    TITLE "0:"
    INDEX 01 00:01:36
  TRACK 03 AUDIO
    TITLE "6:cjc137_6795"
    INDEX 01 00:01:40
  TRACK 04 AUDIO
    TITLE "0:"
    INDEX 01 00:03:33
  TRACK 05 AUDIO
    TITLE "5:cjc137_6796"
    INDEX 01 00:03:41
  TRACK 06 AUDIO
    TITLE "0:"
    INDEX 01 00:05:03
  TRACK 07 AUDIO
    TITLE "4:cjc137_6797"
    INDEX 01 00:06:08
  TRACK 08 AUDIO
    TITLE "0:"
    INDEX 01 00:07:43
  TRACK 09 AUDIO
    TITLE "6:cjc137_6798"
    INDEX 01 00:07:47
  TRACK 10 AUDIO
    TITLE "0:"
    INDEX 01 00:09:24
  TRACK 11 AUDIO
    TITLE "5:cjc137_6799"
    INDEX 01 00:09:32
  TRACK 12 AUDIO
    TITLE "0:"
    INDEX 01 00:10:66
  TRACK 13 AUDIO
    TITLE "4:cjc137_6800"
    INDEX 01 00:11:74
  TRACK 14 AUDIO
    TITLE "0:"
    INDEX 01 00:13:24
  TRACK 15 AUDIO
    TITLE "6:cjc137_6801"
    INDEX 01 00:13:30
  TRACK 16 AUDIO
    TITLE "0:"
    INDEX 01 00:14:33
  TRACK 17 AUDIO
    TITLE "5:cjc137_6802"
    INDEX 01 00:14:39
  TRACK 18 AUDIO
    TITLE "0:"
    INDEX 01 00:15:64
  TRACK 19 AUDIO
    TITLE "4:cjc137_6803"
    INDEX 01 00:16:71
  TRACK 20 AUDIO
    TITLE "0:"
    INDEX 01 00:18:27
  TRACK 21 AUDIO
    TITLE "6:cjc137_6804"
    INDEX 01 00:18:33
  TRACK 22 AUDIO
    TITLE "0:"
    INDEX 01 00:20:04
  TRACK 23 AUDIO
    TITLE "5:cjc137_6805"
    INDEX 01 00:20:10
  TRACK 24 AUDIO
    TITLE "0:"
    INDEX 01 00:21:39
  TRACK 25 AUDIO
    TITLE "4:cjc137_6806"
    INDEX 01 00:22:48
  TRACK 26 AUDIO
    TITLE "0:"
    INDEX 01 00:23:69
  TRACK 27 AUDIO
    TITLE "6:cjc137_6807"
    INDEX 01 00:24:02
  TRACK 28 AUDIO
    TITLE "0:"
    INDEX 01 00:25:45
  TRACK 29 AUDIO
    TITLE "5:cjc137_6808"
    INDEX 01 00:25:48
  TRACK 30 AUDIO
    TITLE "0:"
    INDEX 01 00:26:71
  TRACK 31 AUDIO
    TITLE "4:cjc137_6809"
    INDEX 01 00:28:06
  TRACK 32 AUDIO
    TITLE "0:"
    INDEX 01 00:29:42
  TRACK 33 AUDIO
    TITLE "6:cjc137_6810"
    INDEX 01 00:29:50
  TRACK 34 AUDIO
    TITLE "0:"
    INDEX 01 00:31:43
  TRACK 35 AUDIO
    TITLE "5:cjc137_6811"
    INDEX 01 00:31:49
  TRACK 36 AUDIO
    TITLE "0:"
    INDEX 01 00:33:13
  TRACK 37 AUDIO
    TITLE "4:cjc137_6812"
    INDEX 01 00:34:24
  TRACK 38 AUDIO
    TITLE "0:"
    INDEX 01 00:36:01
  TRACK 39 AUDIO
    TITLE "6:cjc137_6813"
    INDEX 01 00:36:09
  TRACK 40 AUDIO
    TITLE "0:"
    INDEX 01 00:38:12
  TRACK 41 AUDIO
    TITLE "5:cjc137_6814"
    INDEX 01 00:38:24
  TRACK 42 AUDIO
    TITLE "0:"
    INDEX 01 00:40:01
  TRACK 43 AUDIO
    TITLE "4:cjc137_6815"
    INDEX 01 00:41:12
  TRACK 44 AUDIO
    TITLE "0:"
    INDEX 01 00:42:45
  TRACK 45 AUDIO
    TITLE "6:cjc137_6816"
    INDEX 01 00:42:51
  TRACK 46 AUDIO
    TITLE "0:"
    INDEX 01 00:44:58
  TRACK 47 AUDIO
    TITLE "5:cjc137_6817"
    INDEX 01 00:44:63
  TRACK 48 AUDIO
    TITLE "0:"
    INDEX 01 00:46:25
  TRACK 49 AUDIO
    TITLE "4:cjc137_6818"
    INDEX 01 00:47:30
  TRACK 50 AUDIO
    TITLE "0:"
    INDEX 01 00:49:43
  TRACK 51 AUDIO
    TITLE "6:cjc137_6819"
    INDEX 01 00:49:51
  TRACK 52 AUDIO
    TITLE "0:"
    INDEX 01 00:51:28
  TRACK 53 AUDIO
    TITLE "5:cjc137_6820"
    INDEX 01 00:51:38
  TRACK 54 AUDIO
    TITLE "0:"
    INDEX 01 00:53:51
  TRACK 55 AUDIO
    TITLE "4:cjc137_6821"
    INDEX 01 00:54:58
  TRACK 56 AUDIO
    TITLE "0:"
    INDEX 01 00:56:27
  TRACK 57 AUDIO
    TITLE "6:cjc137_6822"
    INDEX 01 00:56:31
  TRACK 58 AUDIO
    TITLE "0:"
    INDEX 01 00:58:24
  TRACK 59 AUDIO
    TITLE "5:cjc137_6823"
    INDEX 01 00:58:32
  TRACK 60 AUDIO
    TITLE "0:"
    INDEX 01 01:00:00
  TRACK 61 AUDIO
    TITLE "4:cjc137_6824"
    INDEX 01 01:01:09
  TRACK 62 AUDIO
    TITLE "0:"
    INDEX 01 01:02:42
  TRACK 63 AUDIO
    TITLE "6:cjc137_6825"
    INDEX 01 01:02:46
  TRACK 64 AUDIO
    TITLE "0:"
    INDEX 01 01:04:09
  TRACK 65 AUDIO
    TITLE "5:cjc137_6826"
    INDEX 01 01:04:17
  TRACK 66 AUDIO
    TITLE "0:"
    INDEX 01 01:05:52
  TRACK 67 AUDIO
    TITLE "4:cjc137_6827"
    INDEX 01 01:06:59
  TRACK 68 AUDIO
    TITLE "0:"
    INDEX 01 01:08:01
  TRACK 69 AUDIO
    TITLE "6:cjc137_6828"
    INDEX 01 01:08:07
  TRACK 70 AUDIO
    TITLE "0:"
    INDEX 01 01:09:61
  TRACK 71 AUDIO
    TITLE "5:cjc137_6829"
    INDEX 01 01:09:67
  TRACK 72 AUDIO
    TITLE "0:"
    INDEX 01 01:11:09
  TRACK 73 AUDIO
    TITLE "4:cjc137_6830"
    INDEX 01 01:12:17
  TRACK 74 AUDIO
    TITLE "0:"
    INDEX 01 01:13:30
  TRACK 75 AUDIO
    TITLE "6:cjc137_6831"
    INDEX 01 01:13:45
  TRACK 76 AUDIO
    TITLE "0:"
    INDEX 01 01:14:57
  TRACK 77 AUDIO
    TITLE "5:cjc137_6832"
    INDEX 01 01:14:65
  TRACK 78 AUDIO
    TITLE "0:"
    INDEX 01 01:16:03
  TRACK 79 AUDIO
    TITLE "4:cjc137_6833"
    INDEX 01 01:17:22
  TRACK 80 AUDIO
    TITLE "0:"
    INDEX 01 01:18:51
  TRACK 81 AUDIO
    TITLE "6:cjc137_6834"
    INDEX 01 01:18:54
  TRACK 82 AUDIO
    TITLE "0:"
    INDEX 01 01:19:42
  TRACK 83 AUDIO
    TITLE "5:cjc137_6835"
    INDEX 01 01:19:52
  TRACK 84 AUDIO
    TITLE "0:"
    INDEX 01 01:21:06
  TRACK 85 AUDIO
    TITLE "4:cjc137_6836"
    INDEX 01 01:22:13
  TRACK 86 AUDIO
    TITLE "0:"
    INDEX 01 01:23:63
  TRACK 87 AUDIO
    TITLE "6:cjc137_6837"
    INDEX 01 01:23:71
  TRACK 88 AUDIO
    TITLE "0:"
    INDEX 01 01:25:00
  TRACK 89 AUDIO
    TITLE "5:cjc137_6838"
    INDEX 01 01:25:08
  TRACK 90 AUDIO
    TITLE "0:"
    INDEX 01 01:26:58
  TRACK 91 AUDIO
    TITLE "4:cjc137_6839"
    INDEX 01 01:27:67
  TRACK 92 AUDIO
    TITLE "0:"
    INDEX 01 01:29:09
  TRACK 93 AUDIO
    TITLE "6:cjc137_6840"
    INDEX 01 01:29:17
  TRACK 94 AUDIO
    TITLE "0:"
    INDEX 01 01:30:66
  TRACK 95 AUDIO
    TITLE "5:cjc137_6841"
    INDEX 01 01:30:69
  TRACK 96 AUDIO
    TITLE "0:"
    INDEX 01 01:32:13
  TRACK 97 AUDIO
    TITLE "4:cjc137_6842"
    INDEX 01 01:33:19
  TRACK 98 AUDIO
    TITLE "0:"
    INDEX 01 01:35:04
  TRACK 99 AUDIO
    TITLE "6:cjc137_6843"
    INDEX 01 01:35:10
  TRACK 100 AUDIO
    TITLE "0:"
    INDEX 01 01:37:01
  TRACK 101 AUDIO
    TITLE "5:cjc137_6844"
    INDEX 01 01:37:05
  TRACK 102 AUDIO
    TITLE "0:"
    INDEX 01 01:38:67
  TRACK 103 AUDIO
    TITLE "4:cjc137_6845"
    INDEX 01 01:39:72
  TRACK 104 AUDIO
    TITLE "0:"
    INDEX 01 01:41:30
  TRACK 105 AUDIO
    TITLE "6:cjc137_6846"
    INDEX 01 01:41:40
  TRACK 106 AUDIO
    TITLE "0:"
    INDEX 01 01:43:25
  TRACK 107 AUDIO
    TITLE "5:cjc137_6847"
    INDEX 01 01:43:31
  TRACK 108 AUDIO
    TITLE "0:"
    INDEX 01 01:44:60
  TRACK 109 AUDIO
    TITLE "4:cjc137_6848"
    INDEX 01 01:46:02
  TRACK 110 AUDIO
    TITLE "0:"
    INDEX 01 01:47:54
  TRACK 111 AUDIO
    TITLE "6:cjc137_6849"
    INDEX 01 01:47:68
  TRACK 112 AUDIO
    TITLE "0:"
    INDEX 01 01:49:73
  TRACK 113 AUDIO
    TITLE "5:cjc137_6850"
    INDEX 01 01:50:07
  TRACK 114 AUDIO
    TITLE "0:"
    INDEX 01 01:51:60
  TRACK 115 AUDIO
    TITLE "4:cjc137_6851"
    INDEX 01 01:52:73
  TRACK 116 AUDIO
    TITLE "0:"
    INDEX 01 01:54:48
  TRACK 117 AUDIO
    TITLE "6:cjc137_6852"
    INDEX 01 01:54:54
  TRACK 118 AUDIO
    TITLE "0:"
    INDEX 01 01:56:63
  TRACK 119 AUDIO
    TITLE "5:cjc137_6853"
    INDEX 01 01:56:69
  TRACK 120 AUDIO
    TITLE "0:"
    INDEX 01 01:58:46
  TRACK 121 AUDIO
    TITLE "4:cjc137_6854"
    INDEX 01 01:59:55
  TRACK 122 AUDIO
    TITLE "0:"
    INDEX 01 02:02:58
  TRACK 123 AUDIO
    TITLE "6:cjc137_6855"
    INDEX 01 02:02:66
  TRACK 124 AUDIO
    TITLE "0:"
    INDEX 01 02:05:70
  TRACK 125 AUDIO
    TITLE "5:cjc137_6856"
    INDEX 01 02:06:01
  TRACK 126 AUDIO
    TITLE "0:"
    INDEX 01 02:09:03
  TRACK 127 AUDIO
    TITLE "4:cjc137_6857"
    INDEX 01 02:10:12
  TRACK 128 AUDIO
    TITLE "0:"
    INDEX 01 02:11:31
  TRACK 129 AUDIO
    TITLE "6:cjc137_6858"
    INDEX 01 02:11:35
  TRACK 130 AUDIO
    TITLE "0:"
    INDEX 01 02:12:35
  TRACK 131 AUDIO
    TITLE "5:cjc137_6859"
    INDEX 01 02:12:40
  TRACK 132 AUDIO
    TITLE "0:"
    INDEX 01 02:13:57
